<?xml version="1.0" standalone="no"?>
<!DOCTYPE svg PUBLIC "-//W3C//DTD SVG 20010904//EN"
 "http://www.w3.org/TR/2001/REC-SVG-20010904/DTD/svg10.dtd">
<svg version="1.0" xmlns="http://www.w3.org/2000/svg"
 width="720.000000pt" height="720.000000pt" viewBox="0 0 720.000000 720.000000"
 preserveAspectRatio="xMidYMid meet">
<metadata>
Created by potrace 1.16, written by Peter Selinger 2001-2019
</metadata>
<g transform="translate(0.000000,720.000000) scale(0.100000,-0.100000)"
fill="#FFF" stroke="none">
<path d="M4565 7190 c28 -6 26 -7 -18 -14 -139 -22 -325 -113 -442 -215 -22
-20 -34 -28 -26 -18 25 32 -5 17 -42 -21 -38 -39 -50 -65 -19 -41 9 7 6 1 -7
-14 -27 -30 -41 -37 -20 -9 7 9 1 6 -14 -7 -30 -27 -38 -51 -9 -30 15 11 15
11 4 -1 -7 -8 -18 -15 -24 -15 -6 0 -13 -6 -16 -14 -3 -9 0 -11 9 -6 8 5 11 4
6 -1 -5 -5 -14 -9 -19 -9 -6 0 -13 -6 -16 -14 -3 -9 0 -11 8 -6 9 5 11 4 6 -4
-4 -6 -12 -9 -17 -5 -11 6 -85 -145 -94 -191 -5 -26 -4 -27 4 -7 18 39 20 24
3 -25 -12 -36 -16 -90 -16 -217 -1 -94 -4 -157 -8 -140 -4 16 -5 7 -2 -21 10
-89 109 -305 134 -290 4 3 14 -3 21 -13 13 -15 12 -16 -3 -3 -10 7 -18 9 -18
3 0 -17 144 -145 205 -181 74 -45 190 -86 287 -101 88 -14 293 -9 376 10 80
18 58 21 -33 5 -103 -18 -274 -19 -367 -1 -157 30 -277 90 -382 189 l-61 59
62 -54 c170 -147 355 -207 611 -195 258 11 458 97 647 276 l80 76 -70 -73
c-105 -110 -240 -194 -400 -250 -16 -6 -23 -11 -15 -11 32 -1 185 70 267 125
81 54 233 194 233 215 0 6 -4 7 -10 4 -16 -10 -11 1 7 16 15 12 16 12 8 -1 -8
-13 -7 -13 8 -1 19 15 23 36 5 25 -7 -4 -8 -3 -4 5 4 6 11 9 16 6 12 -8 33 33
24 47 -4 7 -3 8 5 4 15 -9 62 93 91 196 27 95 36 244 21 333 -20 121 -81 283
-101 270 -5 -3 -12 0 -16 6 -4 8 -3 9 4 5 17 -10 15 6 -4 32 -8 12 -19 20 -24
17 -5 -3 -12 0 -16 6 -4 8 -3 9 4 5 7 -4 12 -3 12 1 0 14 -131 138 -180 170
-52 35 -130 76 -135 71 -2 -2 24 -18 58 -36 34 -17 76 -43 92 -58 24 -20 20
-19 -18 6 -70 46 -167 88 -255 110 -63 16 -68 19 -27 14 28 -3 47 -2 42 2 -4
4 -105 8 -225 9 -119 0 -203 -2 -187 -5z"/>
<path d="M3930 5180 c-410 -40 -803 -189 -1179 -447 -51 -36 -90 -60 -87 -55
11 18 180 129 303 200 141 80 269 138 438 198 66 24 115 43 109 43 -16 1 -169
-52 -267 -93 -247 -102 -499 -259 -747 -463 -115 -95 -570 -545 -570 -564 0
-8 5 -7 18 2 9 7 6 1 -7 -14 -27 -30 -41 -37 -20 -9 7 9 1 6 -14 -7 -30 -27
-38 -52 -9 -30 14 11 13 10 -2 -9 -21 -24 -32 -29 -20 -9 5 8 2 8 -9 -2 -20
-16 -23 -36 -4 -25 8 5 8 2 -2 -9 -16 -20 -26 -23 -15 -4 5 8 2 8 -9 -2 -20
-16 -23 -36 -4 -25 7 4 9 3 4 -2 -5 -5 -14 -9 -19 -9 -6 0 -13 -6 -16 -14 -3
-9 0 -11 8 -6 9 5 11 4 6 -4 -4 -6 -12 -9 -17 -6 -15 10 -69 -115 -69 -161 0
-77 90 -167 168 -167 39 0 120 45 138 76 4 6 -3 3 -17 -8 l-24 -20 24 28 c24
27 38 36 26 17 -3 -5 -2 -10 4 -10 11 0 224 225 230 243 3 8 -3 7 -15 -3 -10
-8 -3 3 15 23 40 43 56 50 20 10 -15 -18 -11 -16 14 6 36 34 50 60 25 45 -7
-4 3 9 21 29 43 46 56 49 15 5 -16 -18 -7 -13 19 12 26 24 47 48 47 53 0 5 -7
4 -15 -3 -38 -32 -8 2 62 70 l78 75 -65 -70 c-36 -38 0 -6 80 71 80 77 181
163 225 193 91 60 103 70 60 48 -49 -25 -155 -106 -230 -176 l-70 -65 55 58
c131 138 314 247 426 254 60 4 113 -12 129 -38 4 -6 -8 -2 -27 10 -44 26 -121
26 -193 -1 -31 -12 -55 -23 -53 -25 2 -2 28 5 56 16 75 29 152 27 190 -5 16
-13 31 -22 34 -19 3 2 5 -35 4 -83 l-2 -88 -414 -995 c-539 -1297 -549 -1322
-630 -1546 -75 -208 -163 -501 -156 -518 2 -6 5 -2 5 8 1 11 3 17 6 14 3 -3
-6 -54 -19 -114 -43 -189 -59 -327 -54 -464 2 -69 1 -111 -3 -95 -22 95 -3
335 42 539 11 49 18 91 15 93 -2 2 -11 -29 -20 -69 -55 -247 -70 -455 -42
-579 19 -84 71 -203 85 -194 5 3 13 0 17 -6 4 -8 3 -9 -4 -5 -18 11 -14 -10 5
-25 15 -12 16 -12 8 1 -5 9 0 8 13 -4 25 -21 31 -36 7 -16 -22 18 -19 -4 3
-23 10 -10 22 -14 26 -10 4 5 6 2 4 -6 -3 -13 126 -111 147 -111 6 0 -17 17
-50 38 -33 21 -67 47 -75 57 -8 11 3 5 25 -12 61 -48 155 -91 252 -115 114
-28 359 -30 503 -4 243 43 479 126 740 258 85 43 150 74 145 69 -6 -6 -71 -41
-145 -80 -74 -39 -132 -71 -127 -71 4 0 44 19 90 41 259 130 563 333 820 547
104 87 437 410 437 425 0 5 -7 4 -15 -3 -28 -24 -15 -4 17 26 28 24 30 25 13
4 -17 -21 -15 -20 13 4 33 31 45 59 14 35 -9 -7 -6 -1 7 14 27 30 41 37 20 10
-11 -15 -10 -14 9 1 22 19 31 43 12 31 -16 -10 -11 1 7 16 15 12 16 12 8 -1
-5 -9 0 -8 13 4 26 23 30 45 5 25 -16 -13 -17 -12 -5 3 8 10 19 16 24 15 6 -1
13 4 16 12 3 9 0 11 -9 6 -8 -5 -11 -4 -6 1 5 5 14 9 19 9 6 0 13 6 16 14 3 9
0 11 -9 6 -8 -5 -11 -4 -6 1 5 5 14 9 19 9 6 0 13 6 16 14 3 9 0 11 -8 6 -9
-5 -11 -4 -6 4 4 6 11 9 16 6 13 -8 78 125 85 172 7 43 -14 118 -32 118 -7 0
-18 7 -25 15 -11 12 -11 12 5 1 9 -7 17 -9 17 -4 0 13 -35 44 -46 42 -5 -1
-22 3 -37 9 -16 7 -36 12 -46 12 -28 0 -97 -53 -211 -164 l-105 -101 90 94
c102 106 197 181 229 181 11 0 34 -7 50 -15 25 -13 27 -13 16 0 -6 8 -28 17
-47 21 -53 10 -120 -43 -331 -266 -364 -382 -499 -508 -648 -608 -16 -11 -15
-11 6 -1 56 26 184 132 335 278 l160 154 -160 -159 c-88 -88 -194 -185 -235
-216 -178 -132 -307 -161 -371 -82 -12 15 -12 17 0 9 11 -6 13 -4 6 11 -4 10
-10 48 -12 84 -6 88 28 214 111 422 70 171 726 1869 874 2258 123 326 180 577
170 745 -4 60 -4 60 -6 -15 -4 -120 -46 -390 -59 -376 -2 2 6 50 18 107 17 79
22 139 23 249 0 151 -12 222 -54 317 -10 24 -15 41 -10 38 15 -9 51 -116 65
-190 7 -39 14 -56 14 -40 2 68 -70 267 -107 298 -13 9 -14 9 -8 0 11 -19 1
-16 -15 4 -10 11 -10 14 -1 9 34 -20 4 19 -62 82 -54 51 -98 82 -158 111 -80
38 -187 72 -224 70 -11 0 16 -9 59 -20 87 -21 209 -74 247 -108 17 -15 9 -12
-23 8 -69 42 -161 77 -253 96 -94 20 -286 27 -404 15z"/>
</g>
</svg>
