<svg id="svg" xmlns="http://www.w3.org/2000/svg" xmlns:xlink="http://www.w3.org/1999/xlink" width="400" height="400" viewBox="0, 0, 400,400"><g id="svgg"><path id="path0" d="M169.474 2.959 C 139.005 12.646,111.662 35.799,98.043 63.443 C 87.080 85.697,86.184 84.438,126.794 103.818 L 162.009 120.623 170.347 115.105 C 178.058 110.003,178.548 109.107,176.859 103.217 C 173.785 92.497,181.805 87.286,191.225 93.884 C 196.930 97.880,202.971 96.682,211.361 89.892 L 217.460 84.956 201.118 45.110 C 192.130 23.194,183.823 4.079,182.657 2.632 C 180.157 -0.472,180.275 -0.475,169.474 2.959 M207.368 9.748 C 190.443 12.108,190.513 8.800,206.568 47.527 C 223.783 89.056,223.575 86.914,211.167 94.783 C 200.010 101.859,194.640 102.570,189.246 97.689 C 184.450 93.348,180.681 95.743,181.139 102.840 C 181.742 112.200,181.263 113.322,175.113 116.955 C 169.613 120.203,169.176 121.422,169.215 133.390 C 169.247 143.030,167.681 150.062,163.055 161.053 C 151.578 188.322,154.538 201.531,177.560 225.789 C 194.142 243.263,195.750 243.369,217.930 228.458 C 242.611 211.865,280.711 196.045,304.628 192.459 C 340.297 187.110,347.031 108.205,315.795 61.609 C 292.137 26.317,246.180 4.336,207.368 9.748 M166.316 25.926 C 166.316 27.448,162.796 30.372,158.494 32.424 C 146.264 38.256,136.029 47.289,127.314 59.942 C 114.983 77.847,110.353 74.192,122.375 56.043 C 134.063 38.397,166.316 16.291,166.316 25.926 M204.211 82.260 C 204.211 85.272,203.077 86.406,200.550 85.920 C 195.063 84.863,194.451 77.895,199.846 77.895 C 202.858 77.895,204.211 79.247,204.211 82.260 M87.026 105.789 C 81.746 120.992,81.651 161.637,86.868 173.348 C 91.826 184.476,113.630 180.719,139.576 164.264 L 149.474 157.987 149.474 139.317 L 149.474 120.646 122.281 107.691 C 89.528 92.088,91.743 92.207,87.026 105.789 M166.316 105.418 C 166.316 108.430,165.182 109.564,162.656 109.078 C 157.168 108.021,156.556 101.053,161.951 101.053 C 164.964 101.053,166.316 102.405,166.316 105.418 M338.788 104.966 C 339.940 107.118,345.184 110.083,350.441 111.555 C 358.030 113.680,359.970 115.151,359.852 118.695 C 359.582 126.850,356.598 131.484,351.586 131.532 C 347.223 131.574,345.679 134.624,336.641 161.053 C 324.391 196.871,324.533 193.081,335.263 197.951 C 352.282 205.677,352.171 205.781,363.524 171.450 L 373.661 140.795 368.668 137.029 C 364.051 133.546,363.865 132.688,366.201 125.612 C 369.959 114.225,367.694 110.292,354.551 105.375 C 339.719 99.825,335.985 99.728,338.788 104.966 M307.368 166.316 C 311.583 174.191,306.433 179.593,296.129 178.103 C 290.777 177.329,283.347 178.066,277.034 179.997 C 261.448 184.764,256.564 184.138,250.348 176.576 L 244.907 169.957 234.240 173.500 C 228.373 175.448,220.620 179.864,217.012 183.312 C 209.446 190.543,202.105 189.002,202.105 180.184 C 202.105 173.370,206.988 169.877,214.277 171.478 C 218.206 172.341,223.796 171.306,230.327 168.506 C 244.007 162.643,247.325 163.055,253.699 171.411 L 259.191 178.612 274.332 174.488 C 283.487 171.995,290.616 168.732,292.362 166.235 C 296.115 160.869,304.477 160.914,307.368 166.316 M76.953 206.842 C 60.363 264.787,60.368 264.660,73.568 284.881 C 87.678 306.495,118.686 313.506,151.053 302.401 C 163.663 298.074,163.875 297.363,158.043 278.947 C 154.577 268.004,154.430 265.707,156.949 261.763 C 159.629 257.566,158.697 255.449,145.053 234.713 L 130.251 212.216 121.441 213.135 C 109.187 214.413,103.462 211.769,99.870 203.171 C 94.374 190.017,81.165 192.133,76.953 206.842 M346.127 273.992 C 345.664 274.740,341.254 275.113,336.327 274.821 C 331.400 274.529,326.442 274.817,325.309 275.461 C 324.176 276.105,319.892 276.727,315.789 276.842 C 311.687 276.958,307.166 277.771,305.744 278.650 C 304.322 279.529,302.169 279.637,300.960 278.890 C 299.752 278.143,297.503 278.578,295.964 279.855 C 294.425 281.133,291.720 281.623,289.953 280.945 C 288.187 280.268,286.171 280.636,285.474 281.764 C 284.777 282.892,282.313 283.320,279.998 282.715 C 277.540 282.072,275.789 282.651,275.789 284.107 C 275.789 285.605,274.180 286.089,271.756 285.319 C 269.538 284.615,267.074 285.090,266.280 286.374 C 265.486 287.658,263.581 288.226,262.046 287.637 C 260.511 287.048,258.131 287.920,256.757 289.576 C 255.384 291.231,253.458 292.090,252.479 291.484 C 251.499 290.879,249.001 291.245,246.928 292.297 C 231.810 299.968,224.462 303.158,221.906 303.158 C 220.279 303.158,218.947 304.105,218.947 305.263 C 218.947 306.421,217.459 307.368,215.639 307.368 C 213.820 307.368,210.901 308.798,209.154 310.546 C 207.406 312.293,205.205 313.246,204.261 312.663 C 203.318 312.080,202.003 313.019,201.339 314.749 C 200.675 316.479,198.797 317.895,197.166 317.895 C 195.535 317.895,193.029 319.305,191.598 321.029 C 190.167 322.754,188.256 323.706,187.350 323.147 C 186.445 322.587,185.161 323.545,184.497 325.275 C 183.833 327.005,181.941 328.421,180.291 328.421 C 178.642 328.421,176.747 329.842,176.081 331.579 C 175.414 333.316,173.520 334.737,171.870 334.737 C 170.221 334.737,168.326 336.158,167.660 337.895 C 166.993 339.632,165.099 341.053,163.449 341.053 C 161.800 341.053,159.905 342.474,159.239 344.211 C 158.572 345.947,156.677 347.368,155.028 347.368 C 153.379 347.368,151.461 348.850,150.766 350.660 C 150.072 352.470,148.649 353.423,147.604 352.777 C 146.559 352.131,145.161 353.019,144.497 354.749 C 143.833 356.479,141.839 357.895,140.066 357.895 C 138.293 357.895,136.842 358.665,136.842 359.607 C 136.842 360.549,133.526 362.620,129.474 364.211 C 125.421 365.801,122.105 367.872,122.105 368.814 C 122.105 369.756,120.266 370.526,118.019 370.526 C 115.772 370.526,113.446 371.314,112.851 372.277 C 112.256 373.240,108.410 373.916,104.305 373.780 C 100.201 373.644,96.842 374.145,96.842 374.894 C 96.842 376.742,79.485 375.968,76.262 373.976 C 74.844 373.100,72.737 372.969,71.579 373.684 C 70.421 374.400,69.474 373.982,69.474 372.756 C 69.474 371.530,68.537 370.526,67.392 370.526 C 64.158 370.526,56.931 363.665,58.127 361.730 C 58.715 360.778,57.618 360.000,55.688 360.000 C 53.436 360.000,52.615 358.870,53.393 356.842 C 54.059 355.105,53.586 353.684,52.340 353.684 C 51.095 353.684,50.610 352.293,51.262 350.594 C 51.914 348.894,51.670 347.022,50.719 346.435 C 49.250 345.527,49.114 329.483,50.548 326.316 C 50.810 325.737,50.904 324.526,50.756 323.626 C 50.608 322.725,51.912 321.442,53.653 320.773 C 55.394 320.105,56.290 318.704,55.644 317.659 C 54.998 316.615,55.951 315.191,57.761 314.497 C 59.572 313.802,61.053 311.914,61.053 310.301 C 61.053 308.688,62.474 307.368,64.211 307.368 C 65.947 307.368,67.368 305.947,67.368 304.211 C 67.368 302.474,68.789 301.053,70.526 301.053 C 72.263 301.053,73.684 299.618,73.684 297.865 C 73.684 293.255,64.687 280.057,61.524 280.026 C 58.305 279.995,40.000 297.886,40.000 301.063 C 40.000 302.288,38.579 303.835,36.842 304.502 C 35.105 305.168,33.684 307.451,33.684 309.575 C 33.684 311.698,32.737 314.021,31.579 314.737 C 30.421 315.452,29.474 318.193,29.474 320.826 C 29.474 323.459,28.792 326.295,27.959 327.128 C 25.792 329.295,25.595 343.114,27.712 344.423 C 28.689 345.027,28.909 347.832,28.201 350.655 C 27.415 353.784,27.823 355.789,29.245 355.789 C 30.529 355.789,31.579 357.752,31.579 360.150 C 31.579 362.549,33.009 365.941,34.756 367.689 C 36.504 369.436,37.425 371.689,36.802 372.696 C 36.180 373.702,37.593 375.554,39.941 376.811 C 42.289 378.067,44.211 380.483,44.211 382.179 C 44.211 383.875,45.485 385.263,47.042 385.263 C 48.600 385.263,51.531 387.094,53.556 389.332 C 55.581 391.569,58.418 392.947,59.861 392.394 C 61.303 391.840,63.617 392.754,65.003 394.424 C 66.389 396.094,69.276 397.002,71.419 396.441 C 73.561 395.881,75.827 396.253,76.454 397.267 C 77.081 398.282,82.636 398.771,88.797 398.353 C 94.959 397.936,102.842 397.425,106.316 397.218 C 109.789 397.011,113.843 395.698,115.324 394.300 C 116.805 392.902,119.314 392.256,120.901 392.865 C 122.487 393.473,124.410 392.959,125.174 391.722 C 125.939 390.486,128.403 389.474,130.651 389.474 C 132.898 389.474,134.737 388.526,134.737 387.368 C 134.737 386.211,136.516 385.263,138.690 385.263 C 140.864 385.263,143.822 383.842,145.263 382.105 C 146.705 380.368,149.088 378.947,150.559 378.947 C 152.030 378.947,153.802 377.466,154.497 375.656 C 155.191 373.846,156.720 372.958,157.895 373.684 C 159.069 374.410,160.598 373.523,161.293 371.712 C 161.987 369.902,163.905 368.421,165.554 368.421 C 167.204 368.421,169.099 367.000,169.765 365.263 C 170.431 363.526,172.195 362.105,173.684 362.105 C 175.173 362.105,176.937 360.684,177.603 358.947 C 178.270 357.211,180.165 355.789,181.814 355.789 C 183.463 355.789,185.358 354.368,186.024 352.632 C 186.691 350.895,188.687 349.474,190.460 349.474 C 192.233 349.474,193.684 348.526,193.684 347.368 C 193.684 346.211,195.004 345.263,196.617 345.263 C 198.230 345.263,200.095 343.842,200.761 342.105 C 201.428 340.368,203.424 338.947,205.197 338.947 C 206.970 338.947,208.421 338.000,208.421 336.842 C 208.421 335.684,210.214 334.737,212.406 334.737 C 214.598 334.737,216.960 333.256,217.655 331.446 C 218.349 329.635,219.764 328.677,220.799 329.317 C 221.834 329.957,223.843 329.080,225.263 327.368 C 226.683 325.657,228.578 324.710,229.474 325.263 C 230.369 325.817,232.264 324.869,233.684 323.158 C 235.105 321.447,237.041 320.525,237.988 321.110 C 238.934 321.695,240.304 321.211,241.031 320.034 C 241.759 318.858,244.193 317.895,246.440 317.895 C 248.687 317.895,250.526 316.947,250.526 315.789 C 250.526 314.632,252.365 313.684,254.613 313.684 C 256.860 313.684,259.294 312.721,260.021 311.545 C 260.749 310.368,262.267 309.976,263.396 310.673 C 264.524 311.371,266.786 310.831,268.421 309.474 C 270.056 308.116,272.318 307.577,273.447 308.274 C 274.575 308.972,276.134 308.515,276.910 307.259 C 277.686 306.004,279.616 305.473,281.198 306.080 C 282.781 306.688,284.687 306.196,285.433 304.988 C 286.180 303.780,288.579 303.259,290.764 303.830 C 292.949 304.401,294.737 303.900,294.737 302.715 C 294.737 301.531,296.631 301.057,298.945 301.662 C 301.260 302.267,303.623 302.003,304.198 301.074 C 304.772 300.145,309.090 299.581,313.795 299.821 C 318.499 300.061,322.762 299.588,323.268 298.769 C 323.775 297.949,328.038 297.476,332.742 297.716 C 337.446 297.956,341.679 297.532,342.147 296.774 C 342.616 296.016,348.956 295.587,356.236 295.822 C 374.142 296.398,374.737 296.017,374.737 283.985 C 374.737 277.274,373.820 273.602,372.105 273.447 C 362.065 272.542,346.827 272.862,346.127 273.992 " stroke="none" fill="#FFF" fill-rule="evenodd"></path></g></svg>