<?xml version="1.0" standalone="no"?>
<!DOCTYPE svg PUBLIC "-//W3C//DTD SVG 20010904//EN"
 "http://www.w3.org/TR/2001/REC-SVG-20010904/DTD/svg10.dtd">
<svg version="1.0" xmlns="http://www.w3.org/2000/svg"
 width="512.000000pt" height="512.000000pt" viewBox="0 0 512.000000 512.000000"
 preserveAspectRatio="xMidYMid meet">

<g transform="translate(0.000000,512.000000) scale(0.100000,-0.100000)" fill="#FFF" stroke="none">
<path d="M737 5106 c-82 -30 -143 -91 -173 -173 -11 -32 -13 -412 -14 -2235
l0 -2197 47 22 48 22 1938 5 1939 5 24 28 24 28 0 2225 0 2226 -29 29 -29 29
-1869 0 c-1542 -1 -1875 -3 -1906 -14z m158 -299 c12 -18 15 -68 15 -285 l0
-263 -25 -24 c-37 -38 -95 -35 -129 6 l-26 31 0 249 c0 169 4 257 11 272 31
58 118 66 154 14z m680 -171 c60 -28 127 -98 146 -152 31 -91 7 -212 -55 -277
l-27 -27 26 -34 c42 -55 67 -133 72 -227 8 -118 -20 -169 -92 -169 -66 0 -95
50 -95 161 0 58 -5 80 -24 113 -26 45 -88 86 -130 86 l-26 0 0 -151 0 -151
-29 -29 c-40 -39 -82 -39 -122 1 l-30 29 3 370 3 369 31 39 c48 60 83 73 199
73 84 0 108 -4 150 -24z m500 -1 l25 -24 0 -301 c0 -327 3 -344 55 -368 40
-18 62 -15 97 17 l33 29 5 317 5 317 24 19 c36 29 87 25 122 -10 l29 -29 0
-304 c0 -349 -4 -376 -71 -452 -62 -70 -108 -91 -204 -91 -63 0 -89 5 -121 22
-53 28 -99 74 -127 127 -21 40 -22 53 -25 367 l-3 326 26 32 c35 41 93 44 130
6z m726 6 l24 -19 5 -344 5 -343 66 -5 c72 -5 91 -16 109 -60 10 -24 10 -36 0
-60 -20 -49 -45 -60 -134 -60 -99 0 -155 24 -194 83 l-27 40 -3 364 -3 364 30
29 c35 36 86 40 122 11z m822 -1 c34 -27 43 -70 22 -110 -22 -42 -49 -50 -166
-50 l-99 0 0 -89 0 -89 65 -4 c82 -5 117 -33 117 -93 0 -59 -34 -86 -116 -92
l-66 -6 0 -88 0 -89 108 0 c119 0 140 -8 162 -60 10 -24 10 -36 0 -60 -22 -54
-42 -60 -180 -60 -168 1 -217 22 -255 113 -12 30 -15 89 -15 344 0 277 2 312
19 348 40 87 82 105 247 105 116 0 134 -2 157 -20z m739 -10 c26 -27 30 -36
25 -68 -4 -22 -17 -46 -32 -59 -24 -21 -36 -23 -140 -23 -62 0 -125 -4 -139
-10 -33 -12 -59 -63 -51 -100 9 -41 38 -62 102 -72 110 -17 187 -67 228 -148
53 -105 40 -218 -36 -304 -70 -79 -101 -90 -271 -94 l-148 -4 -30 30 c-40 41
-40 83 -1 123 29 29 30 29 149 29 114 0 122 1 150 25 35 30 44 62 26 104 -15
36 -36 46 -118 61 -111 19 -193 89 -223 189 -40 140 34 288 170 338 18 6 91
12 170 12 l139 1 30 -30z m-3477 -635 l25 -24 0 -1595 0 -1594 -31 -26 c-34
-29 -55 -32 -94 -14 -58 26 -55 -71 -55 1643 l0 1577 29 29 c38 38 91 40 126
4z m3208 -719 c39 -16 94 -76 104 -114 5 -15 8 -229 8 -477 0 -406 -2 -453
-17 -481 -23 -43 -71 -81 -116 -94 -52 -14 -2603 -14 -2655 1 -47 13 -106 63
-123 106 -22 51 -20 909 1 960 21 50 42 72 90 94 38 18 100 19 1358 19 1084 0
1323 -2 1350 -14z m-372 -1664 c16 -18 29 -41 29 -53 0 -33 -27 -75 -57 -88
-21 -8 -273 -11 -966 -9 l-939 3 -24 28 c-26 30 -31 75 -13 108 26 49 10 49
1007 46 l934 -2 29 -33z m-282 -448 c41 -34 44 -92 6 -129 l-24 -25 -680 0
-679 0 -26 31 c-29 34 -32 62 -12 98 28 51 14 50 723 51 l661 0 31 -26z"/>
<path d="M1370 4390 l0 -90 65 0 c82 0 115 25 115 87 -1 66 -37 93 -124 93
l-56 0 0 -90z"/>
<path d="M1460 2700 l0 -410 1280 0 1280 0 0 410 0 410 -1280 0 -1280 0 0
-410z"/>
<path d="M715 365 c-5 -2 -22 -6 -37 -9 -37 -8 -98 -63 -114 -103 -38 -91 4
-189 101 -234 38 -18 110 -19 1852 -19 l1812 0 28 24 28 24 3 161 3 161 -1833
-1 c-1008 0 -1837 -2 -1843 -4z"/>
</g>
</svg>
