<?xml version="1.0" standalone="no"?>
<!DOCTYPE svg PUBLIC "-//W3C//DTD SVG 20010904//EN"
 "http://www.w3.org/TR/2001/REC-SVG-20010904/DTD/svg10.dtd">
<svg version="1.0" xmlns="http://www.w3.org/2000/svg"
 width="512.000000pt" height="512.000000pt" viewBox="0 0 512.000000 512.000000"
 preserveAspectRatio="xMidYMid meet">

<g transform="translate(0.000000,512.000000) scale(0.100000,-0.100000)"
fill="#000000" stroke="none">
<path d="M0 2560 l0 -2560 2560 0 2560 0 0 2560 0 2560 -2560 0 -2560 0 0
-2560z m3809 2088 c25 -172 31 -179 174 -237 114 -46 212 -102 286 -166 103
-88 126 -92 267 -39 53 20 100 32 104 28 5 -5 40 -63 78 -128 l69 -120 -88
-73 c-107 -89 -119 -116 -100 -220 23 -126 25 -224 6 -352 -23 -152 -19 -162
94 -257 45 -37 81 -71 81 -76 0 -5 -32 -64 -71 -132 l-71 -122 -108 39 c-132
48 -156 46 -238 -21 -109 -91 -218 -155 -331 -194 -30 -10 -66 -25 -79 -34
-33 -22 -58 -84 -73 -186 l-12 -88 -152 0 -151 0 -17 107 c-21 127 -42 162
-114 188 -141 50 -255 115 -365 207 -82 67 -106 69 -238 21 l-108 -39 -71 122
c-39 68 -71 127 -71 132 0 5 36 39 80 76 119 100 120 102 90 301 -13 86 -9
199 11 308 19 104 7 131 -100 220 l-88 73 69 120 c38 65 73 123 78 128 4 4 52
-9 107 -29 124 -47 162 -45 229 11 120 101 207 153 340 203 120 46 133 65 154
219 l13 92 152 0 152 0 12 -82z m-2213 -2777 c149 -68 212 -239 141 -383 -49
-100 -141 -158 -252 -158 -108 0 -196 54 -250 151 -25 46 -29 65 -29 129 -1
62 4 84 26 125 33 62 80 108 138 134 59 27 169 28 226 2z"/>
<path d="M3525 4065 c-173 -38 -317 -150 -396 -307 -90 -179 -78 -409 31 -575
196 -298 613 -351 876 -110 209 191 246 510 87 750 -129 193 -372 292 -598
242z"/>
</g>
</svg>
